<mxfile host="65bd71144e">
    <diagram id="ThFCF0TLdTxAYwLWlhu4" name="第 1 页">
        <mxGraphModel dx="681" dy="790" grid="1" gridSize="10" guides="1" tooltips="1" connect="1" arrows="1" fold="1" page="1" pageScale="1" pageWidth="827" pageHeight="1169" math="0" shadow="0">
            <root>
                <mxCell id="0"/>
                <mxCell id="1" parent="0"/>
                <mxCell id="7" value="" style="edgeStyle=none;html=1;" parent="1" source="2" target="4" edge="1">
                    <mxGeometry relative="1" as="geometry"/>
                </mxCell>
                <mxCell id="9" style="edgeStyle=orthogonalEdgeStyle;html=1;entryX=0;entryY=0.5;entryDx=0;entryDy=0;" parent="1" source="2" target="5" edge="1">
                    <mxGeometry relative="1" as="geometry"/>
                </mxCell>
                <mxCell id="10" style="edgeStyle=orthogonalEdgeStyle;html=1;entryX=0;entryY=0.5;entryDx=0;entryDy=0;" parent="1" source="2" target="6" edge="1">
                    <mxGeometry relative="1" as="geometry"/>
                </mxCell>
                <mxCell id="2" value="Menu" style="rhombus;whiteSpace=wrap;html=1;" parent="1" vertex="1">
                    <mxGeometry x="180" y="240" width="80" height="80" as="geometry"/>
                </mxCell>
                <mxCell id="8" value="" style="edgeStyle=none;html=1;entryX=0;entryY=0.5;entryDx=0;entryDy=0;" parent="1" source="4" target="31" edge="1">
                    <mxGeometry relative="1" as="geometry">
                        <mxPoint x="550" y="280" as="targetPoint"/>
                    </mxGeometry>
                </mxCell>
                <mxCell id="19" style="edgeStyle=none;html=1;" parent="1" source="4" edge="1">
                    <mxGeometry relative="1" as="geometry">
                        <mxPoint x="140" y="280" as="targetPoint"/>
                        <Array as="points">
                            <mxPoint x="400" y="200"/>
                            <mxPoint x="140" y="200"/>
                        </Array>
                    </mxGeometry>
                </mxCell>
                <mxCell id="4" value="LOGIN" style="rounded=0;whiteSpace=wrap;html=1;fillColor=#d5e8d4;strokeColor=#82b366;" parent="1" vertex="1">
                    <mxGeometry x="340" y="250" width="120" height="60" as="geometry"/>
                </mxCell>
                <mxCell id="21" style="edgeStyle=orthogonalEdgeStyle;html=1;" parent="1" source="5" edge="1">
                    <mxGeometry relative="1" as="geometry">
                        <mxPoint x="140" y="280" as="targetPoint"/>
                        <Array as="points">
                            <mxPoint x="520" y="400"/>
                            <mxPoint x="520" y="600"/>
                            <mxPoint x="140" y="600"/>
                        </Array>
                    </mxGeometry>
                </mxCell>
                <mxCell id="5" value="SIGN IN" style="rounded=0;whiteSpace=wrap;html=1;fillColor=#d5e8d4;strokeColor=#82b366;" parent="1" vertex="1">
                    <mxGeometry x="340" y="370" width="120" height="60" as="geometry"/>
                </mxCell>
                <mxCell id="22" style="edgeStyle=orthogonalEdgeStyle;html=1;" parent="1" source="6" edge="1">
                    <mxGeometry relative="1" as="geometry">
                        <mxPoint x="140" y="280" as="targetPoint"/>
                        <Array as="points">
                            <mxPoint x="400" y="600"/>
                            <mxPoint x="140" y="600"/>
                        </Array>
                    </mxGeometry>
                </mxCell>
                <mxCell id="6" value="QUIT" style="rounded=0;whiteSpace=wrap;html=1;fillColor=#d5e8d4;strokeColor=#82b366;" parent="1" vertex="1">
                    <mxGeometry x="340" y="490" width="120" height="60" as="geometry"/>
                </mxCell>
                <mxCell id="11" value="" style="endArrow=classic;html=1;entryX=0;entryY=0.5;entryDx=0;entryDy=0;" parent="1" target="2" edge="1">
                    <mxGeometry width="50" height="50" relative="1" as="geometry">
                        <mxPoint x="100" y="280" as="sourcePoint"/>
                        <mxPoint x="440" y="300" as="targetPoint"/>
                    </mxGeometry>
                </mxCell>
                <mxCell id="18" value="" style="ellipse;shape=doubleEllipse;whiteSpace=wrap;html=1;aspect=fixed;" parent="1" vertex="1">
                    <mxGeometry x="60" y="260" width="40" height="40" as="geometry"/>
                </mxCell>
                <mxCell id="23" value="Show friends/groups" style="rounded=0;whiteSpace=wrap;html=1;fillColor=#d5e8d4;strokeColor=#82b366;" parent="1" vertex="1">
                    <mxGeometry x="890" y="80" width="120" height="60" as="geometry"/>
                </mxCell>
                <mxCell id="24" value="Log out" style="rounded=0;whiteSpace=wrap;html=1;fillColor=#d5e8d4;strokeColor=#82b366;" parent="1" vertex="1">
                    <mxGeometry x="890" y="180" width="120" height="60" as="geometry"/>
                </mxCell>
                <mxCell id="25" value="help" style="rounded=0;whiteSpace=wrap;html=1;fillColor=#d5e8d4;strokeColor=#82b366;" parent="1" vertex="1">
                    <mxGeometry x="890" y="290" width="120" height="60" as="geometry"/>
                </mxCell>
                <mxCell id="26" value="chat" style="rounded=0;whiteSpace=wrap;html=1;fillColor=#d5e8d4;strokeColor=#82b366;" parent="1" vertex="1">
                    <mxGeometry x="890" y="390" width="120" height="60" as="geometry"/>
                </mxCell>
                <mxCell id="27" value="group chat" style="rounded=0;whiteSpace=wrap;html=1;fillColor=#d5e8d4;strokeColor=#82b366;" parent="1" vertex="1">
                    <mxGeometry x="890" y="490" width="120" height="60" as="geometry"/>
                </mxCell>
                <mxCell id="28" value="add" style="rounded=0;whiteSpace=wrap;html=1;fillColor=#d5e8d4;strokeColor=#82b366;" parent="1" vertex="1">
                    <mxGeometry x="890" y="590" width="120" height="60" as="geometry"/>
                </mxCell>
                <mxCell id="29" value="join" style="rounded=0;whiteSpace=wrap;html=1;fillColor=#d5e8d4;strokeColor=#82b366;" parent="1" vertex="1">
                    <mxGeometry x="890" y="690" width="120" height="60" as="geometry"/>
                </mxCell>
                <mxCell id="30" value="OnlineMenu" style="rhombus;whiteSpace=wrap;html=1;" parent="1" vertex="1">
                    <mxGeometry x="690" y="240" width="80" height="80" as="geometry"/>
                </mxCell>
                <mxCell id="33" style="edgeStyle=orthogonalEdgeStyle;html=1;entryX=0;entryY=0.5;entryDx=0;entryDy=0;" parent="1" source="31" target="30" edge="1">
                    <mxGeometry relative="1" as="geometry"/>
                </mxCell>
                <mxCell id="31" value="offline messages&lt;br&gt;&amp;amp;&lt;br&gt;friends/groups lists" style="rounded=0;whiteSpace=wrap;html=1;fillColor=#d5e8d4;strokeColor=#82b366;" parent="1" vertex="1">
                    <mxGeometry x="530" y="250" width="120" height="60" as="geometry"/>
                </mxCell>
                <mxCell id="34" value="Log out" style="rounded=0;whiteSpace=wrap;html=1;fillColor=#d5e8d4;strokeColor=#82b366;" parent="1" vertex="1">
                    <mxGeometry x="890" y="180" width="120" height="60" as="geometry"/>
                </mxCell>
                <mxCell id="35" value="Log out" style="rounded=0;whiteSpace=wrap;html=1;fillColor=#d5e8d4;strokeColor=#82b366;" parent="1" vertex="1">
                    <mxGeometry x="890" y="180" width="120" height="60" as="geometry"/>
                </mxCell>
                <mxCell id="37" value="能正常加，但是会重复加" style="text;html=1;align=center;verticalAlign=middle;resizable=0;points=[];autosize=1;strokeColor=none;" parent="1" vertex="1">
                    <mxGeometry x="1025" y="710" width="150" height="20" as="geometry"/>
                </mxCell>
                <mxCell id="41" value="- client侧的日志问题&lt;br&gt;- client 侧的功能耦合&lt;br&gt;- client 侧存在代码复制" style="text;html=1;align=center;verticalAlign=middle;resizable=0;points=[];autosize=1;strokeColor=none;" parent="1" vertex="1">
                    <mxGeometry x="1150" y="185" width="140" height="50" as="geometry"/>
                </mxCell>
                <mxCell id="42" value="可以收到自己的group chat&lt;br&gt;多个chat放在一个包里的时候无法反序列化" style="text;html=1;align=center;verticalAlign=middle;resizable=0;points=[];autosize=1;strokeColor=none;" parent="1" vertex="1">
                    <mxGeometry x="1025" y="490" width="240" height="30" as="geometry"/>
                </mxCell>
            </root>
        </mxGraphModel>
    </diagram>
</mxfile>